<svg xmlns="http://www.w3.org/2000/svg" width="150" height="150" viewBox="0 0 150 150">
  <rect width="150" height="150" fill="#3b82f6"/>
  <path d="M75 30 C65 30 60 35 60 45 L60 120 C60 130 65 135 75 135 C85 135 90 130 90 120 L90 45 C90 35 85 30 75 30 Z" fill="#ffffff" opacity="0.8"/>
  <path d="M75 40 C70 40 67 42 67 47 L67 115 C67 120 70 122 75 122 C80 122 83 120 83 115 L83 47 C83 42 80 40 75 40 Z" fill="#3b82f6" opacity="0.9"/>
  <text x="75" y="75" font-family="Arial" font-size="10" text-anchor="middle" fill="#ffffff">Água</text>
  <text x="75" y="90" font-family="Arial" font-size="10" text-anchor="middle" fill="#ffffff">Sem Gás</text>
</svg>