<?xml version="1.0" standalone="no"?>
<!DOCTYPE svg PUBLIC "-//W3C//DTD SVG 20010904//EN"
 "http://www.w3.org/TR/2001/REC-SVG-20010904/DTD/svg10.dtd">
<svg version="1.0" xmlns="http://www.w3.org/2000/svg"
 width="554.000000pt" height="554.000000pt" viewBox="0 0 554.000000 554.000000"
 preserveAspectRatio="xMidYMid meet">

<g transform="translate(0.000000,554.000000) scale(0.100000,-0.100000)"
fill="#000000" stroke="none">
<path d="M2668 5033 c12 -2 30 -2 40 0 9 3 -1 5 -23 4 -22 0 -30 -2 -17 -4z"/>
<path d="M3085 5031 c-3 -6 -2 -11 4 -11 5 0 11 -10 13 -22 2 -12 9 -23 16
-26 10 -3 13 5 10 29 -3 34 -29 52 -43 30z"/>
<path d="M2410 4986 c0 -15 7 -26 20 -29 18 -5 19 -3 4 24 -18 35 -24 37 -24
5z"/>
<path d="M3105 4950 c3 -5 11 -10 16 -10 6 0 7 5 4 10 -3 6 -11 10 -16 10 -6
0 -7 -4 -4 -10z"/>
<path d="M2410 4940 c0 -5 5 -10 10 -10 6 0 10 5 10 10 0 6 -4 10 -10 10 -5 0
-10 -4 -10 -10z"/>
<path d="M2476 4932 c-19 -2 -25 -6 -17 -11 8 -5 -4 -12 -33 -20 -65 -16 -61
-36 5 -27 l52 7 -6 -83 c-7 -93 5 -150 18 -86 4 21 10 37 14 36 3 0 13 0 21 1
13 1 13 3 0 10 -8 6 -17 8 -21 5 -4 -2 -6 14 -4 37 3 43 18 61 42 52 7 -3 13
-1 13 3 0 5 93 8 208 8 259 -2 242 -1 242 -21 0 -15 2 -16 10 -3 8 12 10 9 10
-13 0 -16 -4 -26 -9 -23 -4 3 -6 -6 -3 -19 2 -14 8 -28 13 -31 5 -3 9 -12 9
-19 0 -11 -9 -13 -32 -9 l-33 5 32 -16 c30 -16 43 -35 49 -75 2 -8 15 -24 30
-35 39 -30 134 -125 134 -136 0 -5 5 -9 10 -9 16 0 -1 26 -74 113 -69 82 -96
144 -96 221 0 74 5 82 56 78 58 -5 58 14 -1 29 -25 6 -42 15 -39 20 3 5 10 6
16 3 6 -4 8 -2 5 3 -7 10 -548 14 -621 5z m127 -9 c-13 -2 -35 -2 -50 0 -16 2
-5 4 22 4 28 0 40 -2 28 -4z m384 1 c-3 -3 -12 -4 -19 -1 -8 3 -5 6 6 6 11 1
17 -2 13 -5z"/>
<path d="M2660 4750 c0 -5 4 -10 9 -10 6 0 13 5 16 10 3 6 -1 10 -9 10 -9 0
-16 -4 -16 -10z"/>
<path d="M2741 4726 c10 -9 79 -14 74 -5 -4 5 -22 9 -42 9 -20 0 -34 -2 -32
-4z"/>
<path d="M2455 4660 c-4 -11 -18 -34 -32 -50 -35 -42 -12 -38 26 5 17 20 28
41 25 50 -8 20 -11 19 -19 -5z"/>
<path d="M2379 4553 c-13 -16 -12 -17 4 -4 16 13 21 21 13 21 -2 0 -10 -8 -17
-17z"/>
<path d="M3270 4412 c0 -4 10 -13 23 -21 22 -14 22 -14 3 8 -20 22 -26 25 -26
13z"/>
<path d="M2393 4404 c7 -8 118 -6 125 1 3 3 -25 5 -63 5 -38 0 -65 -3 -62 -6z"/>
<path d="M2578 4403 c6 -2 18 -2 25 0 6 3 1 5 -13 5 -14 0 -19 -2 -12 -5z"/>
<path d="M2640 4401 c8 -6 28 -11 44 -11 39 0 31 6 -19 14 -29 5 -36 4 -25 -3z"/>
<path d="M2744 4402 c5 -8 106 -5 115 3 2 3 -24 5 -58 5 -34 0 -60 -4 -57 -8z"/>
<path d="M2348 4393 c7 -3 16 -2 19 1 4 3 -2 6 -13 5 -11 0 -14 -3 -6 -6z"/>
<path d="M2225 4370 c-4 -7 3 -9 20 -6 37 7 44 16 12 16 -14 0 -29 -5 -32 -10z"/>
<path d="M3310 4345 c11 -12 17 -25 13 -30 -5 -4 -3 -5 3 -2 6 4 20 0 30 -8
18 -14 18 -14 -6 -15 -15 0 -31 5 -38 12 -9 9 -12 9 -12 0 0 -6 9 -16 20 -22
11 -6 20 -8 20 -4 0 4 12 -3 26 -17 14 -13 27 -23 30 -21 2 1 4 0 4 -3 0 -3 0
-8 0 -11 0 -4 -8 0 -17 7 -15 12 -16 12 -10 -4 6 -17 4 -17 -28 3 -19 12 -35
17 -35 11 0 -6 5 -11 10 -11 6 0 10 -4 10 -8 0 -10 -41 -10 -56 0 -6 4 -31 10
-55 13 -32 4 -38 3 -24 -4 17 -8 17 -10 3 -10 -9 -1 -20 4 -23 10 -4 6 -24 9
-45 6 -22 -2 -42 -1 -47 4 -4 4 -28 8 -53 9 -61 2 -64 2 -52 -13 8 -10 2 -12
-29 -9 -21 2 -39 8 -39 13 0 4 -10 13 -22 20 -18 10 -20 9 -15 -5 6 -14 1 -15
-36 -10 -23 4 -52 13 -64 21 -14 10 -23 11 -28 4 -3 -6 2 -11 13 -11 11 0 22
-6 25 -13 3 -9 -8 -12 -39 -12 -35 0 -41 2 -29 11 12 9 9 11 -15 10 -20 -1
-29 -5 -25 -14 3 -10 -4 -11 -29 -7 -20 4 -36 2 -40 -4 -5 -7 -13 -8 -25 -1
-10 5 -21 6 -25 3 -3 -3 -6 -1 -6 6 0 8 -7 10 -21 6 -32 -10 -89 -13 -89 -4 0
4 6 9 13 12 6 2 9 8 5 12 -3 3 -20 -3 -36 -15 -35 -26 -94 -29 -117 -6 -11 11
-22 13 -33 7 -9 -5 -34 -13 -54 -19 -33 -9 -36 -8 -35 9 1 10 5 19 10 19 4 0
5 5 2 10 -5 8 -11 7 -21 -1 -12 -10 -13 -9 -8 5 13 33 -16 15 -47 -30 -76
-111 -102 -242 -84 -428 6 -72 8 -76 31 -76 17 0 24 5 24 20 0 19 6 21 80 19
44 -1 80 -6 80 -11 0 -5 -4 -7 -9 -4 -5 4 -12 0 -14 -6 -4 -10 -6 -10 -6 0 -1
15 -41 16 -41 1 0 -6 6 -9 13 -6 9 3 12 -9 12 -44 0 -27 -3 -49 -7 -49 -9 0
-10 10 -10 55 1 26 0 27 -6 7 -4 -13 -11 -23 -16 -22 -5 1 -13 -4 -18 -12 -8
-10 -9 -10 -5 2 2 8 10 14 16 13 20 -5 11 17 -11 28 l-23 10 23 -5 c16 -3 22
1 22 15 0 10 -4 19 -10 19 -5 0 -10 -6 -10 -12 0 -9 -3 -8 -10 2 -11 17 -19
11 -25 -19 -3 -14 1 -21 13 -22 16 0 16 -1 0 -7 -13 -6 -16 -23 -16 -100 -1
-55 3 -90 9 -87 16 11 51 -6 45 -21 -3 -8 1 -14 10 -14 8 0 12 5 9 10 -3 6 -1
10 4 10 17 0 13 -20 -6 -27 -10 -4 -23 2 -34 16 -10 12 -24 19 -30 16 -8 -6
-7 -10 2 -16 12 -8 11 -11 -1 -19 -10 -6 -11 -10 -2 -10 6 0 12 -7 12 -16 0
-8 -5 -12 -10 -9 -6 3 -10 -3 -10 -14 0 -12 6 -21 13 -21 8 0 8 -3 1 -8 -13
-9 -13 -75 1 -84 6 -5 6 -8 -2 -8 -8 0 -13 -14 -13 -38 0 -37 14 -62 34 -62 6
0 4 5 -4 10 -8 5 -10 10 -4 10 6 0 21 -9 33 -19 20 -17 20 -20 6 -35 -9 -9
-12 -16 -6 -16 6 0 11 -7 11 -15 0 -8 -5 -15 -11 -15 -5 0 -8 4 -4 9 3 5 1 13
-5 16 -8 5 -8 11 0 20 16 19 5 34 -19 28 -25 -6 -36 -34 -19 -45 10 -6 10 -8
1 -8 -8 0 -13 -14 -13 -35 0 -19 4 -35 10 -35 5 0 7 -13 4 -28 -6 -27 -4 -29
25 -27 36 2 59 19 42 29 -5 4 -8 13 -5 21 4 10 0 12 -17 8 -15 -4 -20 -3 -15
6 4 6 12 9 17 6 5 -4 9 0 9 7 0 8 5 6 11 -5 5 -9 8 -21 5 -26 -3 -5 1 -12 10
-15 9 -4 14 -13 10 -21 -5 -13 31 -15 277 -17 273 -2 276 -2 97 -8 -102 -3
-256 -4 -342 -2 l-158 3 0 23 c0 16 -7 26 -22 29 -12 4 -24 5 -25 3 -9 -9 -3
-150 8 -183 15 -46 15 -85 0 -138 -15 -54 -14 -164 3 -287 46 -332 39 -723
-21 -1151 -12 -89 -13 -121 -5 -129 8 -8 12 -55 12 -135 0 -91 4 -133 17 -164
14 -37 15 -53 5 -123 -11 -87 -5 -155 23 -252 25 -88 76 -184 110 -209 73 -55
216 -70 346 -35 91 24 152 26 170 4 31 -38 69 -47 179 -42 85 3 114 9 141 25
30 19 45 20 129 16 59 -3 112 -1 140 7 129 34 231 258 201 441 -19 114 -19
131 -3 178 19 56 12 294 -18 666 -27 318 -23 663 10 885 23 158 25 259 5 315
-18 49 -19 89 -3 118 15 26 21 454 7 463 -5 3 -6 11 -2 17 4 7 7 29 8 50 0 29
-4 37 -18 37 -16 0 -18 10 -16 110 2 61 6 110 11 110 4 0 5 -8 1 -17 -4 -13
-3 -15 5 -8 6 6 14 44 16 85 3 41 8 113 11 160 7 92 -12 212 -44 285 -25 56
-108 166 -123 163 -7 -2 -12 3 -10 10 1 6 -5 12 -14 12 -8 0 -13 4 -10 8 3 5
-2 9 -10 9 -11 0 -10 -5 6 -22z m-245 -115 c3 -5 -3 -10 -15 -10 -12 0 -18 5
-15 10 3 6 10 10 15 10 5 0 12 -4 15 -10z m-355 -446 c-34 -7 -158 -9 -154 -2
3 5 42 7 87 7 45 -1 75 -3 67 -5z m47 0 c-3 -3 -12 -4 -19 -1 -8 3 -5 6 6 6
11 1 17 -2 13 -5z m634 -26 c-11 -53 -4 -177 13 -219 20 -49 20 -60 1 -35 -17
23 -17 25 -16 -124 0 -47 -5 -99 -11 -116 -8 -24 -7 -36 5 -60 11 -19 16 -23
17 -12 0 9 5 20 10 23 7 4 9 -2 5 -18 -4 -14 -1 -35 5 -47 13 -24 4 -43 -10
-20 -13 21 -18 11 -26 -47 -5 -45 -4 -52 12 -56 11 -3 -17 -5 -61 -6 -44 -1
-161 -3 -260 -6 -143 -3 -161 -2 -86 5 51 4 109 12 130 16 20 4 38 7 41 6 3 0
6 21 8 48 1 38 -2 51 -16 59 -16 10 -16 10 1 11 9 0 17 -5 17 -11 0 -8 5 -8
15 1 8 7 15 16 15 21 0 5 -61 9 -135 9 -116 0 -135 2 -135 16 0 10 -6 13 -18
10 -37 -12 -156 -9 -160 4 -3 9 -7 9 -13 -1 -6 -10 -9 -8 -9 8 0 19 5 22 43
23 23 0 56 2 72 3 25 2 29 -1 27 -18 -4 -20 -3 -20 11 0 13 17 17 18 33 5 10
-8 15 -10 11 -4 -4 6 2 19 12 28 16 14 39 18 120 18 55 0 103 3 106 8 6 9 6
32 1 112 -2 32 0 55 4 53 4 -3 13 2 20 10 7 9 30 15 54 16 35 1 37 2 16 9 -14
4 -35 5 -47 3 -14 -3 -23 0 -23 7 0 6 6 8 13 4 10 -6 10 -4 0 7 -17 18 -16 29
2 29 8 0 15 5 15 11 0 5 4 7 10 4 6 -3 7 1 4 9 -5 14 -8 14 -21 1 -8 -8 -23
-15 -33 -15 -22 0 -50 36 -50 63 0 25 48 67 68 60 13 -5 14 -3 6 6 -9 10 -17
10 -33 2 -12 -7 -21 -8 -21 -3 0 13 26 33 33 26 5 -6 5 0 -8 59 -6 31 -31 36
-40 8 -7 -21 -31 -19 -51 5 -7 9 -45 14 -125 17 -63 1 10 4 162 5 l277 2 -7
-32z m-947 10 c-3 -4 -14 -8 -26 -8 -16 0 -19 -5 -16 -25 3 -14 1 -25 -3 -25
-5 0 -9 11 -9 25 0 18 -5 25 -20 25 -23 0 -25 -10 -7 -29 10 -11 9 -12 -3 -5
-8 5 -19 9 -25 9 -5 0 -9 8 -9 18 1 9 -2 17 -7 17 -5 0 -9 -4 -9 -9 0 -10 -38
-3 -45 9 -2 4 38 7 90 7 52 -1 92 -4 89 -9z m86 0 c0 -3 -9 -6 -20 -5 -11 1
-20 5 -20 9 0 3 9 6 20 5 11 -1 20 -5 20 -9z m128 -18 c-7 -11 -18 -22 -26
-25 -8 -3 -6 4 5 20 21 29 38 34 21 5z m-53 0 c-3 -5 -14 -10 -23 -10 -15 0
-15 2 -2 10 20 13 33 13 25 0z m-359 -26 c-4 -9 -9 -15 -11 -12 -3 3 -3 13 1
22 4 9 9 15 11 12 3 -3 3 -13 -1 -22z m178 10 c3 -8 2 -12 -4 -9 -6 3 -10 10
-10 16 0 14 7 11 14 -7z m-144 -24 c0 -5 -5 -10 -11 -10 -5 0 -7 5 -4 10 3 6
8 10 11 10 2 0 4 -4 4 -10z m285 0 c3 -5 1 -10 -4 -10 -6 0 -11 5 -11 10 0 6
2 10 4 10 3 0 8 -4 11 -10z m-174 -17 c13 -15 12 -15 -8 -4 -24 12 -29 21 -14
21 5 0 15 -7 22 -17z m113 1 c3 -8 2 -12 -4 -9 -6 3 -10 10 -10 16 0 14 7 11
14 -7z m636 -5 c0 -5 -4 -9 -10 -9 -5 0 -10 7 -10 16 0 8 5 12 10 9 6 -3 10
-10 10 -16z m350 12 c0 -6 -4 -13 -10 -16 -5 -3 -10 1 -10 9 0 9 5 16 10 16 6
0 10 -4 10 -9z m-428 -26 c-2 -15 0 -25 7 -25 6 0 11 9 11 20 0 11 7 20 15 20
8 0 15 -9 15 -20 0 -11 5 -20 10 -20 6 0 10 -7 10 -16 0 -8 -4 -12 -10 -9 -15
9 -12 -32 4 -63 8 -15 12 -39 9 -53 -5 -25 -7 -26 -69 -24 -35 2 -67 -1 -70
-6 -3 -5 0 -9 6 -9 6 0 8 -5 4 -11 -5 -8 -10 -6 -16 5 -11 19 -3 36 18 36 8 0
14 5 14 10 0 6 22 10 49 10 55 0 75 14 36 24 -21 5 -25 12 -25 41 0 19 -5 35
-11 35 -7 0 -8 -14 -4 -40 6 -33 4 -40 -9 -40 -9 0 -20 10 -25 23 -22 59 -29
87 -20 87 5 0 9 9 9 19 0 12 8 21 23 24 12 2 23 5 23 6 1 0 -1 -10 -4 -24z
m-778 9 c21 -8 21 -24 0 -24 -8 0 -13 4 -9 9 3 5 -7 12 -22 14 -21 3 -22 4 -6
6 12 0 28 -2 37 -5z m62 -13 c-3 -5 1 -12 10 -15 9 -4 15 -9 12 -12 -3 -2 -18
1 -33 8 -24 11 -25 13 -8 19 25 10 25 10 19 0z m-206 -16 c0 -8 -4 -15 -8 -15
-5 0 -9 7 -9 15 0 8 4 15 9 15 4 0 8 -7 8 -15z m860 -35 c19 -47 10 -72 -28
-76 -54 -6 -74 10 -70 59 3 35 7 42 28 47 38 9 57 1 70 -30z m-790 26 c0 -2
-7 -7 -16 -10 -8 -3 -12 -2 -9 4 6 10 25 14 25 6z m666 -11 c3 -7 6 -30 7 -51
2 -30 -2 -39 -15 -42 -15 -3 -18 4 -18 38 0 53 -24 50 -28 -3 -5 -53 -32 -50
-32 3 0 29 -4 40 -15 40 -11 0 -15 -11 -15 -40 0 -28 -4 -40 -14 -40 -10 0
-15 16 -18 55 l-3 55 73 -1 c50 -1 75 -5 78 -14z m-369 -17 c-3 -8 -6 -5 -6 6
-1 11 2 17 5 13 3 -3 4 -12 1 -19z m-342 3 c-8 -14 35 -51 51 -44 8 3 14 1 14
-5 0 -6 -11 -9 -25 -7 -27 2 -33 -13 -12 -34 10 -11 8 -11 -11 -2 -18 10 -20
15 -12 31 8 15 6 21 -6 28 -16 9 -14 42 1 42 4 0 4 -4 0 -9z m379 -7 c3 -8 2
-12 -4 -9 -6 3 -10 10 -10 16 0 14 7 11 14 -7z m-191 -1 c-7 -2 -19 -2 -25 0
-7 3 -2 5 12 5 14 0 19 -2 13 -5z m-28 -13 c13 -6 15 -9 5 -9 -8 0 -22 4 -30
9 -18 12 -2 12 25 0z m72 -22 c0 -13 -14 -38 -29 -56 -20 -23 -27 -41 -24 -55
3 -12 3 -16 0 -9 -3 6 -10 10 -14 7 -5 -3 -7 4 -5 17 3 12 11 26 19 30 9 5 13
16 9 26 -3 9 -3 14 1 10 10 -8 36 14 29 25 -4 7 4 27 12 27 2 0 3 -10 2 -22z
m-70 -15 c-9 -2 -14 -9 -11 -15 4 -7 2 -8 -5 -4 -15 10 -4 26 17 25 15 -1 15
-2 -1 -6z m97 -18 c-6 -16 -24 -21 -24 -7 0 11 11 22 21 22 5 0 6 -7 3 -15z
m214 -5 c-7 -10 -14 -17 -17 -15 -4 4 18 35 25 35 2 0 -1 -9 -8 -20z m-341
-15 c0 -8 -4 -15 -9 -15 -10 0 -11 14 -1 23 9 10 10 9 10 -8z m270 -1 c-3 -3
-12 -4 -19 -1 -8 3 -5 6 6 6 11 1 17 -2 13 -5z m104 -17 c-10 -9 -11 -8 -5 6
3 10 9 15 12 12 3 -3 0 -11 -7 -18z m109 -77 c0 -49 4 -90 9 -90 5 0 11 -9 14
-20 4 -16 0 -20 -23 -20 -15 0 -32 6 -38 13 -6 7 -12 56 -14 110 l-3 97 28 0
27 0 0 -90z m400 71 c0 -11 -8 -22 -18 -25 -10 -3 -19 -17 -20 -32 -1 -14 1
-23 6 -21 4 3 7 -20 7 -51 0 -35 -5 -60 -13 -65 -7 -5 -9 -13 -6 -19 4 -7 2
-8 -5 -4 -6 4 -9 11 -6 16 3 5 1 11 -4 14 -5 4 -12 2 -16 -4 -10 -16 -62 -12
-79 6 -9 8 -16 12 -17 7 -1 -4 -5 8 -9 27 -19 78 15 123 89 119 33 -2 45 2 63
23 28 33 28 33 28 9z m-947 -11 c-3 -12 -8 -19 -11 -16 -2 3 -13 -6 -24 -19
-11 -14 -27 -25 -36 -24 -14 0 -14 2 -2 6 8 4 28 21 44 40 33 39 36 40 29 13z
m152 -20 c10 -11 16 -20 13 -20 -3 0 -13 9 -23 20 -10 11 -16 20 -13 20 3 0
13 -9 23 -20z m42 -2 c-3 -8 -6 -5 -6 6 -1 11 2 17 5 13 3 -3 4 -12 1 -19z
m253 8 c0 -2 -7 -7 -16 -10 -8 -3 -12 -2 -9 4 6 10 25 14 25 6z m282 -14 c-10
-3 -10 -7 -1 -18 6 -8 14 -12 18 -10 4 3 5 -11 3 -30 l-4 -34 -60 0 c-53 0
-59 -2 -48 -15 15 -18 42 -19 57 -4 14 14 43 5 43 -14 0 -8 -11 -19 -25 -25
-75 -34 -145 15 -131 92 9 48 43 70 96 63 22 -3 38 -1 34 4 -3 5 3 6 12 2 12
-4 14 -8 6 -11z m-358 -8 c3 -8 2 -12 -4 -9 -6 3 -10 10 -10 16 0 14 7 11 14
-7z m-347 -1 c-4 -3 0 -17 8 -30 14 -21 12 -27 -6 -25 -4 1 -14 -9 -23 -21
-30 -41 -48 -62 -40 -48 4 7 7 22 8 32 1 11 4 18 8 17 8 -3 37 33 38 47 0 5
-5 4 -12 -3 -14 -14 -38 -16 -38 -2 0 5 6 7 14 4 8 -3 19 3 26 15 6 12 14 21
17 21 3 0 3 -3 0 -7z m104 -12 c6 10 9 11 9 1 0 -7 -7 -15 -16 -19 -8 -3 -13
-12 -10 -19 3 -8 2 -14 -3 -14 -5 0 -11 13 -13 30 -4 24 -2 28 10 18 10 -9 16
-8 23 3z m-76 -11 c3 -5 1 -10 -4 -10 -6 0 -11 5 -11 10 0 6 2 10 4 10 3 0 8
-4 11 -10z m1192 -37 c-3 -10 -5 -4 -5 12 0 17 2 24 5 18 2 -7 2 -21 0 -30z
m-1315 -12 c-22 -16 -23 -19 -8 -34 9 -8 16 -24 15 -34 0 -10 -3 -13 -6 -5 -2
6 -9 10 -14 7 -5 -4 -6 0 -3 8 3 8 -2 21 -10 30 -17 17 -22 32 -7 23 5 -3 12
1 15 10 3 9 11 12 18 8 8 -5 9 -2 4 12 -6 16 -5 17 6 6 11 -11 9 -16 -10 -31z
m218 19 c0 -11 -4 -20 -9 -20 -5 0 -7 9 -4 20 3 11 7 20 9 20 2 0 4 -9 4 -20z
m28 -43 c-5 -10 -6 -27 -3 -37 4 -14 2 -20 -8 -20 -12 0 -14 8 -10 33 3 17 8
33 13 35 4 2 6 13 4 25 -4 21 -4 21 5 2 5 -12 5 -27 -1 -38z m-108 18 c0 -8
-7 -15 -15 -15 -16 0 -20 12 -8 23 11 12 23 8 23 -8z m-117 -10 c-3 -9 -8 -14
-10 -11 -3 3 -2 9 2 15 9 16 15 13 8 -4z m177 -10 c-7 -9 -15 -13 -19 -10 -3
3 1 10 9 15 21 14 24 12 10 -5z m-117 -11 c-5 -14 -3 -15 18 -4 22 12 23 12
11 -3 -12 -15 -52 -20 -52 -7 0 6 21 30 27 30 1 0 0 -7 -4 -16z m318 3 c-6 -8
-9 -16 -7 -18 2 -2 -15 -5 -37 -5 l-42 -2 38 10 c20 6 37 14 37 19 0 5 5 9 11
9 8 0 9 -4 0 -13z m-198 -27 c-3 -12 -8 -19 -11 -16 -5 6 5 36 12 36 2 0 2 -9
-1 -20z m97 16 c0 -3 -4 -8 -10 -11 -5 -3 -10 -1 -10 4 0 6 5 11 10 11 6 0 10
-2 10 -4z m128 -21 c-3 -3 -9 2 -12 12 -6 14 -5 15 5 6 7 -7 10 -15 7 -18z
m-301 -10 c0 -8 -4 -12 -9 -9 -4 3 -8 9 -8 15 0 5 4 9 8 9 5 0 9 -7 9 -15z
m707 -15 c-6 -6 -10 -3 -10 10 0 13 4 16 10 10 7 -7 7 -13 0 -20z m500 15 c-4
-8 -8 -15 -10 -15 -2 0 -4 7 -4 15 0 8 4 15 10 15 5 0 7 -7 4 -15z m-1034 -37
c0 -5 -9 -3 -20 4 -11 7 -20 16 -20 20 0 5 9 3 20 -4 11 -7 20 -16 20 -20z
m-50 3 c0 -5 -9 -11 -21 -14 -16 -4 -18 -3 -8 9 13 16 29 19 29 5z m149 6 c-2
-1 -14 -11 -26 -21 -13 -11 -23 -16 -23 -13 0 10 31 37 42 37 6 0 9 -1 7 -3z
m941 -12 c0 -8 -7 -15 -15 -15 -8 0 -15 7 -15 15 0 8 7 15 15 15 8 0 15 -7 15
-15z m-1340 -5 c0 -5 -5 -10 -11 -10 -5 0 -7 5 -4 10 3 6 8 10 11 10 2 0 4 -4
4 -10z m1267 -12 c-3 -8 -6 -5 -6 6 -1 11 2 17 5 13 3 -3 4 -12 1 -19z m-1138
-5 c0 -12 -2 -13 -6 -5 -4 10 -8 10 -19 1 -9 -7 -14 -8 -14 -1 0 10 15 19 33
21 4 1 7 -7 6 -16z m194 -26 c-3 -5 -10 -4 -15 1 -6 6 -7 16 -3 22 6 9 9 9 16
-1 4 -7 5 -17 2 -22z m-93 7 c0 -8 -5 -12 -10 -9 -6 4 -8 11 -5 16 9 14 15 11
15 -7z m1097 1 c0 -8 -4 -15 -9 -15 -4 0 -8 7 -8 15 0 8 4 15 8 15 5 0 9 -7 9
-15z m-957 -5 c0 -5 -5 -10 -11 -10 -5 0 -7 5 -4 10 3 6 8 10 11 10 2 0 4 -4
4 -10z m21 -13 c-10 -9 -11 -8 -5 6 3 10 9 15 12 12 3 -3 0 -11 -7 -18z m-267
-1 c-3 -8 -1 -17 5 -21 6 -3 11 -12 11 -18 0 -7 -4 -6 -10 3 -14 22 -33 19
-52 -10 -10 -14 -18 -20 -18 -13 0 10 56 73 65 73 3 0 2 -6 -1 -14z m146 2 c0
-4 -4 -8 -9 -8 -6 0 -12 4 -15 8 -3 5 1 9 9 9 8 0 15 -4 15 -9z m-79 -32 c-7
-8 -8 -16 -4 -18 4 -3 3 -3 -4 -2 -7 2 -15 -1 -18 -6 -4 -6 -12 -10 -18 -10
-7 1 2 12 18 25 34 28 43 32 26 11z m76 -23 c5 -18 6 -33 2 -33 -5 0 -11 11
-15 25 -3 14 -10 25 -15 25 -5 0 -9 4 -9 8 0 23 27 4 37 -25z m-164 -34 c-6
-6 -7 3 -4 23 4 28 6 29 9 9 2 -13 0 -27 -5 -32z m1199 19 c-8 -8 -9 -4 -5 13
4 13 8 18 11 10 2 -7 -1 -18 -6 -23z m-1312 2 c0 -5 -5 -10 -11 -10 -5 0 -7 5
-4 10 3 6 8 10 11 10 2 0 4 -4 4 -10z m199 -23 c-1 -18 -2 -19 -6 -4 -4 14 -8
16 -19 6 -17 -14 -19 2 -2 19 15 15 28 6 27 -21z m611 23 c0 -5 -5 -10 -11
-10 -5 0 -7 5 -4 10 3 6 8 10 11 10 2 0 4 -4 4 -10z m-753 -22 c-3 -8 -6 -5
-6 6 -1 11 2 17 5 13 3 -3 4 -12 1 -19z m333 12 c-8 -5 -19 -10 -25 -10 -5 0
-3 5 5 10 8 5 20 10 25 10 6 0 3 -5 -5 -10z m-308 -22 c-7 -7 -12 -8 -12 -2 0
14 12 26 19 19 2 -3 -1 -11 -7 -17z m365 -20 c-3 -7 -5 -2 -5 12 0 14 2 19 5
13 2 -7 2 -19 0 -25z m873 11 c0 -6 -4 -7 -10 -4 -5 3 -10 11 -10 16 0 6 5 7
10 4 6 -3 10 -11 10 -16z m-33 -26 c-3 -10 -5 -4 -5 12 0 17 2 24 5 18 2 -7 2
-21 0 -30z m-1177 13 c0 -2 -7 -6 -15 -10 -8 -3 -15 -1 -15 4 0 6 7 10 15 10
8 0 15 -2 15 -4z m35 -6 c3 -5 1 -10 -4 -10 -6 0 -11 5 -11 10 0 6 2 10 4 10
3 0 8 -4 11 -10z m51 -5 c-4 -11 2 -15 24 -15 23 0 28 4 24 18 -5 15 -4 15 10
-2 22 -27 14 -32 -38 -28 -41 4 -44 5 -33 23 14 23 21 25 13 4z m-76 -15 c0
-5 -8 -10 -17 -10 -15 0 -16 2 -3 10 19 12 20 12 20 0z m240 0 c0 -5 -8 -10
-17 -10 -15 0 -16 2 -3 10 19 12 20 12 20 0z m450 0 c0 -5 -4 -10 -10 -10 -5
0 -10 5 -10 10 0 6 5 10 10 10 6 0 10 -4 10 -10z m160 -9 c0 -4 -11 -6 -25 -3
-14 2 -25 6 -25 8 0 2 11 4 25 4 14 0 25 -4 25 -9z m325 -21 c-3 -5 -12 -10
-18 -10 -7 0 -6 4 3 10 19 12 23 12 15 0z m-88 -552 c-3 -8 -6 -5 -6 6 -1 11
2 17 5 13 3 -3 4 -12 1 -19z m-6 -74 c-5 -21 -9 -30 -10 -19 -1 24 10 67 15
62 3 -2 0 -22 -5 -43z m-4 -86 c-3 -8 -6 -5 -6 6 -1 11 2 17 5 13 3 -3 4 -12
1 -19z m-20 -125 c-3 -10 -5 -2 -5 17 0 19 2 27 5 18 2 -10 2 -26 0 -35z m-7
-133 l-6 -55 -5 53 c-2 30 0 54 6 56 13 4 13 9 5 -54z m7 -287 c-3 -10 -5 -2
-5 17 0 19 2 27 5 18 2 -10 2 -26 0 -35z m33 -323 c0 -5 -2 -10 -4 -10 -3 0
-8 5 -11 10 -3 6 -1 10 4 10 6 0 11 -4 11 -10z m1 -161 c-5 -13 -10 -19 -10
-12 -1 15 10 45 15 40 3 -2 0 -15 -5 -28z"/>
<path d="M3230 3615 c0 -8 4 -15 10 -15 5 0 7 7 4 15 -4 8 -8 15 -10 15 -2 0
-4 -7 -4 -15z"/>
<path d="M3178 3613 c7 -3 16 -2 19 1 4 3 -2 6 -13 5 -11 0 -14 -3 -6 -6z"/>
<path d="M3286 3445 c4 -8 10 -15 15 -15 4 0 6 7 3 15 -4 8 -10 15 -15 15 -4
0 -6 -7 -3 -15z"/>
<path d="M3216 3414 c-19 -19 -20 -36 -4 -52 19 -19 37 -14 44 13 4 16 1 30
-9 40 -14 13 -17 13 -31 -1z m28 -19 c3 -8 1 -15 -5 -15 -6 0 -7 -6 -3 -12 6
-10 3 -9 -8 0 -9 8 -14 20 -11 28 7 18 19 18 27 -1z"/>
<path d="M3302 3380 c0 -14 2 -19 5 -12 2 6 2 18 0 25 -3 6 -5 1 -5 -13z"/>
<path d="M3287 3333 c-4 -3 -7 -13 -7 -22 1 -13 3 -13 11 2 11 19 8 33 -4 20z"/>
<path d="M3188 3303 c10 -4 8 -9 -5 -20 -17 -14 -17 -14 5 -10 19 4 22 1 22
-24 0 -16 5 -29 11 -29 7 0 9 11 6 29 -4 20 -2 31 8 35 7 2 15 0 18 -7 2 -6 6
-3 9 8 4 18 -1 20 -41 21 -25 1 -40 -1 -33 -3z"/>
<path d="M3113 3247 c-3 -5 -1 -7 5 -3 6 3 13 -2 15 -11 4 -16 5 -16 6 -1 1
13 8 15 34 11 17 -3 29 -2 26 1 -11 12 -79 14 -86 3z"/>
<path d="M2947 3243 c-4 -3 -7 -17 -7 -30 0 -23 2 -23 105 -23 58 0 105 3 105
8 0 4 -43 5 -96 4 l-97 -4 5 26 c5 25 -1 33 -15 19z"/>
<path d="M2998 3243 c12 -2 30 -2 40 0 9 3 -1 5 -23 4 -22 0 -30 -2 -17 -4z"/>
<path d="M3186 3215 c4 -8 8 -15 10 -15 2 0 4 7 4 15 0 8 -4 15 -10 15 -5 0
-7 -7 -4 -15z"/>
<path d="M3241 3204 c0 -11 3 -14 6 -6 3 7 2 16 -1 19 -3 4 -6 -2 -5 -13z"/>
<path d="M3201 3084 c0 -11 3 -14 6 -6 3 7 2 16 -1 19 -3 4 -6 -2 -5 -13z"/>
<path d="M2930 3600 c0 -13 7 -20 20 -20 13 0 20 7 20 20 0 13 -7 20 -20 20
-13 0 -20 -7 -20 -20z"/>
<path d="M3044 3405 c-14 -36 26 -69 51 -44 22 22 8 59 -21 59 -14 0 -27 -7
-30 -15z m29 -10 c-3 -9 -8 -14 -10 -11 -3 3 -2 9 2 15 9 16 15 13 8 -4z m8
-28 c-10 -9 -11 -8 -5 6 3 10 9 15 12 12 3 -3 0 -11 -7 -18z"/>
<path d="M2877 3423 c-15 -14 -6 -19 24 -15 22 3 27 7 18 13 -17 10 -33 11
-42 2z"/>
<path d="M2219 4328 c-8 -7 -20 -13 -28 -13 -8 0 -16 -6 -19 -14 -3 -9 0 -12
10 -8 9 3 21 0 28 -6 10 -9 11 -9 6 0 -3 6 1 19 10 28 20 19 12 32 -7 13z"/>
<path d="M2570 4310 c-9 -6 -10 -10 -3 -10 6 0 15 5 18 10 8 12 4 12 -15 0z"/>
<path d="M2688 4303 c7 -3 16 -2 19 1 4 3 -2 6 -13 5 -11 0 -14 -3 -6 -6z"/>
<path d="M2726 4288 c3 -4 11 -5 19 -1 21 7 19 12 -4 10 -11 0 -18 -5 -15 -9z"/>
<path d="M3078 4293 c7 -3 16 -2 19 1 4 3 -2 6 -13 5 -11 0 -14 -3 -6 -6z"/>
<path d="M3117 4279 c7 -7 15 -10 18 -7 3 3 -2 9 -12 12 -14 6 -15 5 -6 -5z"/>
<path d="M3265 4280 c3 -5 11 -10 16 -10 6 0 7 5 4 10 -3 6 -11 10 -16 10 -6
0 -7 -4 -4 -10z"/>
<path d="M2475 4270 c-3 -5 1 -10 9 -10 9 0 16 5 16 10 0 6 -4 10 -9 10 -6 0
-13 -4 -16 -10z"/>
<path d="M2934 4269 c15 -9 16 -13 5 -20 -11 -7 -10 -9 4 -9 21 0 23 26 1 34
-25 10 -31 6 -10 -5z"/>
<path d="M2352 4263 c-6 -2 -10 -9 -7 -13 7 -11 35 -2 35 11 0 10 -8 10 -28 2z"/>
<path d="M2565 4260 c-3 -5 3 -10 15 -10 12 0 18 5 15 10 -3 6 -10 10 -15 10
-5 0 -12 -4 -15 -10z"/>
<path d="M3340 4255 c0 -8 7 -15 16 -15 14 0 14 3 4 15 -7 8 -14 15 -16 15 -2
0 -4 -7 -4 -15z"/>
<path d="M2040 3680 c0 -5 9 -10 20 -10 11 0 20 -7 20 -15 0 -8 4 -15 10 -15
6 0 5 10 -2 25 -11 24 -48 36 -48 15z"/>
<path d="M2040 3600 c0 -6 7 -10 15 -10 8 0 15 2 15 4 0 2 -7 6 -15 10 -8 3
-15 1 -15 -4z"/>
<path d="M2038 3540 c3 -23 10 -30 26 -30 16 0 21 7 23 30 2 27 -1 30 -26 30
-25 0 -27 -3 -23 -30z m36 -4 c-8 -20 -24 -21 -24 0 0 8 5 12 10 9 6 -3 10 -1
10 6 0 7 2 10 5 7 3 -3 3 -13 -1 -22z"/>
<path d="M3490 3546 c0 -9 5 -16 10 -16 6 0 10 4 10 9 0 6 -4 13 -10 16 -5 3
-10 -1 -10 -9z"/>
<path d="M3490 3488 c0 -16 5 -28 10 -28 13 0 13 20 0 40 -8 12 -10 9 -10 -12z"/>
<path d="M2040 3475 c0 -14 5 -25 11 -25 6 0 8 7 5 16 -5 13 -2 15 14 11 17
-4 19 -3 9 9 -18 22 -39 17 -39 -11z"/>
<path d="M2040 3414 c0 -19 4 -25 18 -22 9 2 17 10 17 18 0 8 5 18 10 22 6 4
-2 8 -17 8 -23 0 -28 -4 -28 -26z"/>
<path d="M2060 3381 l-25 -7 26 -5 c17 -4 26 -1 26 8 0 7 -1 13 -1 12 -1 -1
-12 -4 -26 -8z"/>
<path d="M2040 3345 c0 -8 7 -15 15 -15 8 0 15 7 15 15 0 8 -7 15 -15 15 -8 0
-15 -7 -15 -15z"/>
<path d="M2081 3334 c0 -11 3 -14 6 -6 3 7 2 16 -1 19 -3 4 -6 -2 -5 -13z"/>
<path d="M2040 3310 c0 -5 12 -10 28 -9 24 0 25 1 7 9 -27 12 -35 12 -35 0z"/>
<path d="M2040 3252 c0 -5 7 -9 15 -9 8 0 15 4 15 9 0 4 -7 8 -15 8 -8 0 -15
-4 -15 -8z"/>
<path d="M2040 3215 c0 -8 7 -15 16 -15 8 0 13 4 9 9 -3 5 3 12 12 14 11 3 8
5 -9 6 -19 1 -28 -4 -28 -14z"/>
<path d="M2038 3160 c3 -22 10 -30 24 -30 14 0 18 5 14 16 -3 8 -2 12 4 9 6
-3 10 4 10 17 0 18 -2 20 -10 8 -6 -10 -10 -11 -10 -2 0 6 -8 12 -18 12 -15 0
-18 -6 -14 -30z"/>
<path d="M2070 3100 c0 -5 5 -10 11 -10 5 0 7 5 4 10 -3 6 -8 10 -11 10 -2 0
-4 -4 -4 -10z"/>
</g>
</svg>
